# xmcd CD database file
#
# Track frame offsets:
#	150
#	49412
#	97542
#	150527
#	189907
#	252294
#
# Disc length: 4025 seconds
#
# Revision: 0
# Processed by: cddbd v1.5.2PL0 Copyright (c) Steve Scherf et al.
# Submitted via: CDex 1.70beta2
#
DISCID=3d0fb706
DTITLE=Ellery Eskelin and Gerry Hemingway - Inbetween Spaces
DYEAR=2012
DGENRE=Jazz
TTITLE0=Motion and Thought
TTITLE1=Stilness and flow
TTITLE2=Sustain and footwork
TTITLE3=Deft and bounce
TTITLE4=Shaken and spill
TTITLE5=Stars and treetops
EXTD=YEAR: 2012
EXTT0=
EXTT1=
EXTT2=
EXTT3=
EXTT4=
EXTT5=
PLAYORDER=
